<?xml version="1.0" encoding="UTF-8"?>
<svg xmlns="http://www.w3.org/2000/svg" viewBox="0 0 2046.51 2506.78">
  <defs>
    <style>
      .cls-1 {
        fill: #231f20;
      }

      .cls-2 {
        stroke: #4062ad;
      }

      .cls-2, .cls-3 {
        stroke-miterlimit: 10;
        stroke-width: 30px;
      }

      .cls-2, .cls-4 {
        fill: #4062ad;
      }

      .cls-5 {
        fill: #250025;
      }

      .cls-6 {
        fill: #d9acd0;
      }

      .cls-7 {
        fill: #4974ba;
      }

      .cls-3 {
        fill: #9960a8;
        stroke: #250025;
      }
    </style>
  </defs>
  <g id="Layer_4" data-name="Layer 4">
    <path class="cls-1" d="M1053.25,1933.95l-118.44-143.78c-15.75-19.12-2.15-47.95,22.62-47.95h47.29c9.28,0,18.01,4.4,23.54,11.85l77.02,103.86c11.48,15.49,34.53,15.86,46.51.75l83.54-105.36c5.56-7.01,14.02-11.1,22.97-11.1h49.21c24.74,0,38.35,28.76,22.66,47.9l-117.15,142.85c-8.8,10.73-8.87,26.15-.17,36.96l115.92,144.08c15.43,19.18,1.78,47.68-22.84,47.68h-48.34c-9.53,0-18.47-4.63-23.96-12.42l-71.68-101.68c-11.21-15.91-34.53-16.67-46.76-1.53l-84.62,104.74c-5.56,6.89-13.94,10.89-22.8,10.89h-48.8c-24.74,0-38.35-28.76-22.66-47.9l116.97-142.63c8.88-10.83,8.86-26.42-.04-37.22Z"/>
    <g>
      <path class="cls-1" d="M1004.42,2443.29h150.2c3.55,0,6.42,2.87,6.42,6.42v48.71c0,3.55-2.87,6.42-6.42,6.42h-220.12c-3.55,0-6.42-2.87-6.42-6.42v-316.36c0-3.55,2.87-6.42,6.42-6.42h57.08c3.55,0,6.42,2.87,6.42,6.42v254.81c0,3.55,2.87,6.42,6.42,6.42Z"/>
      <path class="cls-1" d="M1254.5,2242.24v54.64c0,3.55,2.87,6.42,6.42,6.42h137.35c3.55,0,6.42,2.87,6.42,6.42v46.89c0,3.55-2.87,6.42-6.42,6.42h-137.35c-3.55,0-6.42,2.87-6.42,6.42v68.78c0,3.55,2.87,6.42,6.42,6.42h169.82c3.55,0,6.42,2.87,6.42,6.42v47.35c0,3.55-2.87,6.42-6.42,6.42h-237.25c-3.55,0-6.42-2.87-6.42-6.42v-316.36c0-3.55,2.87-6.42,6.42-6.42h232.25c3.55,0,6.42,2.87,6.42,6.42v47.34c0,3.55-2.87,6.42-6.42,6.42h-164.82c-3.55,0-6.42,2.87-6.42,6.42Z"/>
      <path class="cls-1" d="M1730.42,2182.06v49.17c0,3.55-2.87,6.42-6.42,6.42h-86.69c-3.55,0-6.42,2.87-6.42,6.42v254.35c0,3.55-2.87,6.42-6.42,6.42h-57.08c-3.55,0-6.42-2.87-6.42-6.42v-254.35c0-3.55-2.87-6.42-6.42-6.42h-86.69c-3.55,0-6.42-2.87-6.42-6.42v-49.17c0-3.55,2.87-6.42,6.42-6.42h256.15c3.55,0,6.42,2.87,6.42,6.42Z"/>
      <path class="cls-1" d="M1836.37,2306.04h133.79c3.55,0,6.42-2.87,6.42-6.42v-117.56c0-3.55,2.87-6.42,6.42-6.42h57.08c3.55,0,6.42,2.87,6.42,6.42v316.36c0,3.55-2.87,6.42-6.42,6.42h-57.08c-3.55,0-6.42-2.87-6.42-6.42v-124.4c0-3.55-2.87-6.42-6.42-6.42h-133.79c-3.55,0-6.42,2.87-6.42,6.42v124.4c0,3.55-2.87,6.42-6.42,6.42h-57.08c-3.55,0-6.42-2.87-6.42-6.42v-316.36c0-3.55,2.87-6.42,6.42-6.42h57.08c3.55,0,6.42,2.87,6.42,6.42v117.56c0,3.55,2.87,6.42,6.42,6.42Z"/>
    </g>
  </g>
  <g id="Layer_5" data-name="Layer 5">
    <path class="cls-7" d="M900.36,2117.1c0,266.34-201.55,389.68-450.18,389.68S0,2383.44,0,2117.1c0-175.04,102.75-368.41,250.22-409.09,191.94-52.95,174.3-178.57,218.14-178.57s44.67,141.17,224.72,204.24c154.69,54.18,207.28,197.04,207.28,383.43Z"/>
  </g>
  <g id="Layer_7" data-name="Layer 7">
    <ellipse class="cls-2" cx="678.44" cy="2077.25" rx="155.7" ry="203.13"/>
    <path class="cls-4" d="M841.3,2078.59h34.51c7.85,0,15.36-6.9,15-15-.36-8.13-6.59-15-15-15h-34.51c-7.85,0-15.36,6.9-15,15,.36,8.13,6.59,15,15,15h0Z"/>
    <g>
      <path class="cls-4" d="M511.99,2065.38c-221.47-17-141.39,116.33-345.41,71.59"/>
      <path class="cls-4" d="M511.99,2050.38c-55.6-4.19-114.54-1.08-162.47,30.37-7.15,4.69-13.97,9.86-20.74,15.09-1.61,1.25-3.23,2.49-4.84,3.74-3.04,2.35,1.52-1.16.21-.16-1.71,1.3-3.41,2.62-5.12,3.91-3.16,2.38-6.35,4.72-9.62,6.96-6.83,4.68-13.95,8.75-21.46,12.22-3.49,1.61,3.36-1.3-.26.12-.88.34-1.76.7-2.64,1.03-2.28.85-4.59,1.63-6.91,2.34-4.77,1.45-9.64,2.58-14.55,3.45-1.39.24-2.79.44-4.18.67-3.04.5,3.08-.31.97-.13-.89.08-1.77.21-2.65.3-3.25.34-6.51.58-9.77.73-7.35.33-14.72.22-22.07-.21-4.36-.25-8.71-.62-13.05-1.08-2.1-.22-4.2-.48-6.3-.73-2.91-.34-.48-.05.09.03-1.55-.21-3.11-.43-4.66-.67-10.53-1.57-20.99-3.59-31.4-5.85-7.65-1.67-16.59,2.28-18.45,10.48-1.72,7.57,2.28,16.67,10.48,18.45,50.78,11.06,107.44,18,154.08-10.15,6.99-4.22,13.58-9.04,20.06-14,2.39-1.82,4.76-3.66,7.13-5.5.77-.6,1.54-1.19,2.31-1.79,1.46-1.13-3.27,2.51-1.23.95.52-.4,1.04-.8,1.56-1.2,3.36-2.58,6.73-5.13,10.17-7.59,7.39-5.31,15.07-10.22,23.14-14.42,2.08-1.08,4.18-2.12,6.31-3.11.97-.45,1.95-.89,2.93-1.33.42-.19,2.97-1.28.47-.22s.38-.15.9-.35c5.2-2.09,10.51-3.9,15.9-5.47,6.9-2,13.91-3.59,20.98-4.84,1.79-.32,3.59-.61,5.39-.89.92-.14,1.85-.25,2.78-.41,1.18-.19-2.93.33.56-.06,4.21-.47,8.41-.92,12.63-1.24,21.08-1.6,42.26-1.02,63.32.56,7.84.59,15.34-7.32,15-15-.39-8.63-6.6-14.37-15-15h0Z"/>
    </g>
  </g>
  <g id="Layer_6" data-name="Layer 6">
    <ellipse class="cls-3" cx="688.79" cy="2063.27" rx="155.7" ry="203.13"/>
    <path class="cls-5" d="M851.65,2064.61h48.32c7.85,0,15.36-6.9,15-15-.36-8.13-6.59-15-15-15h-48.32c-7.85,0-15.36,6.9-15,15,.36,8.13,6.59,15,15,15h0Z"/>
    <path class="cls-5" d="M522.35,2036.4c-55.6-4.19-114.54-1.08-162.47,30.37-7.15,4.69-13.97,9.86-20.74,15.09-1.61,1.25-3.23,2.49-4.84,3.74-3.04,2.35,1.52-1.16.21-.16-1.71,1.3-3.41,2.62-5.12,3.91-3.16,2.38-6.35,4.72-9.62,6.96-6.83,4.68-13.95,8.75-21.46,12.22-3.49,1.61,3.36-1.3-.26.12-.88.34-1.76.7-2.64,1.03-2.28.85-4.59,1.63-6.91,2.34-4.77,1.45-9.64,2.58-14.55,3.45-1.39.24-2.79.44-4.18.67-3.04.5,3.08-.31.97-.13-.89.08-1.77.21-2.65.3-3.25.34-6.51.58-9.77.73-7.35.33-14.72.22-22.07-.21-4.36-.25-8.71-.62-13.05-1.08-2.1-.22-4.2-.48-6.3-.73-2.91-.34-.48-.05.09.03-1.55-.21-3.11-.43-4.66-.67-10.53-1.57-20.99-3.59-31.4-5.85-7.65-1.67-16.59,2.28-18.45,10.48-1.72,7.57,2.28,16.67,10.48,18.45,50.78,11.06,107.44,18,154.08-10.15,6.99-4.22,13.58-9.04,20.06-14,2.39-1.82,4.76-3.66,7.13-5.5.77-.6,1.54-1.19,2.31-1.79,1.46-1.13-3.27,2.51-1.23.95.52-.4,1.04-.8,1.56-1.2,3.36-2.58,6.73-5.13,10.17-7.59,7.39-5.31,15.07-10.22,23.14-14.42,2.08-1.08,4.18-2.12,6.31-3.11.97-.45,1.95-.89,2.93-1.33.42-.19,2.97-1.28.47-.22s.38-.15.9-.35c5.2-2.09,10.51-3.9,15.9-5.47,6.9-2,13.91-3.59,20.98-4.84,1.79-.32,3.59-.61,5.39-.89.92-.14,1.85-.25,2.78-.41,1.18-.19-2.93.33.56-.06,4.21-.47,8.41-.92,12.63-1.24,21.08-1.6,42.26-1.02,63.32.56,7.84.59,15.34-7.32,15-15-.39-8.63-6.6-14.37-15-15h0Z"/>
    <path class="cls-6" d="M596.76,1970.13c8.38-.91,16.62-.85,25.01-.19,4.44.35-1.79-.32.87.09.92.14,1.85.29,2.77.46,2.07.37,4.14.81,6.18,1.32,4.12,1.02,8.15,2.32,12.1,3.87-2.46-.97.4.19,1,.46.87.4,1.73.82,2.58,1.25,1.93.98,3.83,2.02,5.69,3.14,4.15,2.5,6.75,4.46,8.92,6.34,7.36,6.38,11.51,11.53,16.31,19.27,19.1,30.84,27.83,73.38,63.12,90.84,20.63,10.2,43.31,9.81,65.67,7.75,7.79-.72,15.39-6.38,15-15-.34-7.51-6.63-15.77-15-15-9.09.84-18.21,1.58-27.34,1.26-2.28-.08-4.54-.25-6.81-.45-2.83-.26,3.46.67-1.25-.14-.99-.17-1.98-.34-2.96-.54-1.97-.4-3.92-.87-5.84-1.44-.96-.28-1.92-.59-2.87-.92-.26-.09-4.24-1.77-2.05-.76-8.24-3.8-13.08-7.97-18.95-15.37,1.63,2.06-.24-.37-.61-.9-.55-.77-1.09-1.56-1.62-2.34-1.21-1.8-2.37-3.64-3.48-5.5-2.3-3.83-4.41-7.78-6.43-11.76-8.23-16.21-14.86-33.39-25.03-48.56-10.94-16.31-25.75-29.99-43.84-37.95-19.23-8.46-40.23-11.5-61.11-9.22-7.77.85-15.39,6.29-15,15,.33,7.4,6.65,15.91,15,15h0Z"/>
  </g>
</svg>